<?xml version="1.0" encoding="iso-8859-1"?>
<!-- Generator: Adobe Illustrator 19.0.0, SVG Export Plug-In . SVG Version: 6.00 Build 0)  -->
<svg version="1.1" id="Capa_1" xmlns="http://www.w3.org/2000/svg" xmlns:xlink="http://www.w3.org/1999/xlink" x="0px" y="0px"
	 viewBox="0 0 512 512" style="enable-background:new 0 0 512 512;" xml:space="preserve">
<path style="fill:#B7C3C8;" d="M256,0L156,256l100,256c141.385,0,256-114.615,256-256S397.385,0,256,0z"/>
<path style="fill:#D1DEE4;" d="M0,256c0,141.385,114.615,256,256,256V0C114.615,0,0,114.615,0,256z"/>
<path style="fill:#014059;" d="M256,256l-40,113l40,113c112.944,0,206.532-82.852,223.315-191.093
	C408.945,268.25,333.904,256,256,256z"/>
<path style="fill:#015E82;" d="M256,482V256c-77.904,0-152.945,12.25-223.315,34.907C49.468,399.148,143.056,482,256,482z"/>
<path style="fill:#012231;" d="M482,256c0-124.816-101.184-226-226-226l-40,113l40,113c77.904,0,152.945,12.25,223.315,34.907
	C481.079,279.529,482,267.872,482,256z"/>
<path style="fill:#014059;" d="M30,256c0,11.872,0.921,23.529,2.685,34.907C103.055,268.25,178.096,256,256,256V30
	C131.184,30,30,131.184,30,256z"/>
<path style="fill:#D1DEE4;" d="M23.172,309.892l-9.793-28.357C91.264,254.638,172.894,241,256,241v30
	C176.233,271,97.899,284.085,23.172,309.892z"/>
<g>
	<path style="fill:#B7C3C8;" d="M488.828,309.892C414.101,284.085,335.767,271,256,271v-30c83.106,0,164.736,13.638,242.621,40.534
		L488.828,309.892z"/>
	<path style="fill:#B7C3C8;" d="M256,121l-52.734,135L256,391c74.558,0,135-60.442,135-135S330.558,121,256,121z"/>
</g>
<path style="fill:#D1DEE4;" d="M121,256c0,74.558,60.442,135,135,135V121C181.442,121,121,181.442,121,256z"/>
<path style="fill:#D5011D;" d="M206,206l50,155c57.897,0,105-47.103,105-105L206,206z"/>
<path style="fill:#FF0021;" d="M151,256c0,57.897,47.103,105,105,105V206L151,256z"/>
<path style="fill:#EFF6F9;" d="M256,151l-30,60l30,45h105C361,198.103,313.897,151,256,151z"/>
<path style="fill:#FFFFFF;" d="M151,256h105V151C198.103,151,151,198.103,151,256z"/>
<path style="fill:#D1DEE4;" d="M256,211l-10,45l10,45c24.813,0,45-20.187,45-45S280.813,211,256,211z"/>
<path style="fill:#EFF6F9;" d="M211,256c0,24.813,20.187,45,45,45v-90C231.187,211,211,231.187,211,256z"/>
<g>
</g>
<g>
</g>
<g>
</g>
<g>
</g>
<g>
</g>
<g>
</g>
<g>
</g>
<g>
</g>
<g>
</g>
<g>
</g>
<g>
</g>
<g>
</g>
<g>
</g>
<g>
</g>
<g>
</g>
</svg>
