<?xml version="1.0" encoding="iso-8859-1"?>
<!-- Generator: Adobe Illustrator 19.0.0, SVG Export Plug-In . SVG Version: 6.00 Build 0)  -->
<svg version="1.1" id="Layer_1" xmlns="http://www.w3.org/2000/svg" xmlns:xlink="http://www.w3.org/1999/xlink" x="0px" y="0px"
	 viewBox="0 0 504.131 504.131" style="enable-background:new 0 0 504.131 504.131;" xml:space="preserve">
<g>
	<path style="fill:#E82B0C;" d="M38.313,161.221c2.584-2.907,3.844-6.073,3.844-9.57c0-8.767-6.924-15.644-15.754-15.644H2.379
		c-1.323,0-2.379,1.063-2.379,2.371v49.538c0,1.292,1.056,2.355,2.379,2.355h24.34c9.287,0,17.124-7.782,17.124-16.998
		C43.843,168.531,41.779,164.143,38.313,161.221z M14.864,168.775h9.657c1.89,0,3.513,1.662,3.513,3.631
		c0,2.048-1.544,3.647-3.513,3.647h-9.657V168.775z M24.096,154.975h-9.232v-4.955h9.232c1.41,0,2.584,1.126,2.584,2.473
		C26.679,153.832,25.498,154.975,24.096,154.975z"/>
	<path style="fill:#E82B0C;" d="M93.318,136.007H71.499c-1.308,0-2.355,1.063-2.355,2.371v49.538c0,1.292,1.048,2.355,2.355,2.355
		h10.122c1.308,0,2.371-1.063,2.371-2.355V175.73h4.261c6.081,0,8.909,5.876,8.909,9.862v2.324c0,1.292,1.071,2.355,2.371,2.355
		h10.122c1.308,0,2.371-1.063,2.371-2.355v-2.844c0-5.002-1.725-11.122-6.294-14.935c3.891-4.049,6.294-9.767,6.294-15.305
		C112.026,144.451,103.629,136.007,93.318,136.007z M83.992,150.02h6.695c3.167,0,5.845,2.678,5.845,5.845
		c0,3.23-2.615,5.845-5.845,5.845h-6.695V150.02z"/>
	<path style="fill:#E82B0C;" d="M169.819,176.053h-17.227v-7.058h15.77c1.292,0,2.363-1.063,2.363-2.371v-9.279
		c0-1.308-1.071-2.371-2.363-2.371h-15.77v-4.742h16.801c1.323,0,2.371-1.079,2.371-2.371v-9.492c0-1.308-1.048-2.371-2.371-2.371
		h-29.294c-1.308,0-2.355,1.063-2.355,2.371v49.538c0,1.292,1.048,2.355,2.355,2.355h29.712c1.308,0,2.395-1.063,2.395-2.355v-9.492
		C172.205,177.109,171.126,176.053,169.819,176.053z"/>
	<path style="fill:#E82B0C;" d="M219.821,136.141c-0.378-0.843-1.229-1.402-2.166-1.402c-0.937,0-1.788,0.551-2.158,1.402
		l-22.449,50.798c-0.323,0.725-0.252,1.583,0.181,2.261c0.441,0.662,1.174,1.063,1.977,1.063h10.65c0.953,0,1.804-0.551,2.182-1.449
		l3.08-7.294h13.186l2.97,7.278c0.362,0.874,1.229,1.465,2.206,1.465h10.626h0.047c1.308,0,2.371-1.063,2.371-2.355
		c0-0.52-0.158-0.985-0.417-1.355L219.821,136.141z M217.655,164.34l1.489,3.489h-2.97L217.655,164.34z"/>
	<path style="fill:#E82B0C;" d="M291.407,160.417l15.202-20.645c0.528-0.725,0.607-1.678,0.197-2.473
		c-0.402-0.788-1.213-1.292-2.103-1.292h-11.39c-0.764,0-1.489,0.37-1.938,1.016l-10.665,15.155v-13.8
		c0-1.308-1.063-2.371-2.371-2.371h-10.106c-1.308,0-2.363,1.063-2.363,2.371v49.538c0,1.292,1.055,2.355,2.363,2.355h10.106
		c1.308,0,2.371-1.063,2.371-2.355v-13.233l1.449-1.906l11.327,16.479c0.441,0.63,1.166,1.016,1.953,1.016h12.745
		c0.882,0,1.701-0.488,2.111-1.276c0.41-0.803,0.331-1.741-0.181-2.458L291.407,160.417z"/>
	<path style="fill:#E82B0C;" d="M345.899,136.007h-10.122c-1.3,0-2.363,1.063-2.363,2.371v49.538c0,1.292,1.063,2.355,2.363,2.355
		h10.122c1.308,0,2.379-1.063,2.379-2.355v-49.538C348.278,137.062,347.207,136.007,345.899,136.007z"/>
	<path style="fill:#E82B0C;" d="M419.556,136.007h-9.476c-1.308,0-2.363,1.063-2.363,2.371v18.873l-17.44-20.417
		c-0.457-0.536-1.103-0.827-1.804-0.827h-8.846c-1.308,0-2.371,1.063-2.371,2.371v49.538c0,1.292,1.063,2.355,2.371,2.355h9.492
		c1.3,0,2.363-1.063,2.363-2.355v-28.767l26.27,31.539c0.457,0.551,1.134,0.843,1.804,0.843c0.284,0,0.544-0.032,0.819-0.142
		c0.937-0.323,1.56-1.229,1.56-2.213v-50.798C421.935,137.062,420.88,136.007,419.556,136.007z"/>
	<path style="fill:#E82B0C;" d="M503.784,159.063c-0.197-1.142-1.182-1.985-2.339-1.985h-26.663c-1.323,0-2.371,1.048-2.371,2.371
		v9.279c0,1.308,1.048,2.355,2.371,2.355h11.729c-2.111,3.324-5.782,6.12-11.106,6.12c-7.412,0-13.225-6.073-13.225-13.863
		c0-7.83,5.805-13.966,13.225-13.966c4.348,0,8.342,2.064,10.689,5.506c0.37,0.536,0.929,0.89,1.552,1.016
		c0.654,0.11,1.276-0.063,1.804-0.449l8.334-6.105c0.504-0.37,0.843-0.922,0.929-1.552c0.11-0.614-0.055-1.245-0.433-1.757
		c-5.388-7.326-13.296-11.201-22.875-11.201c-15.77,0-28.601,12.784-28.601,28.507c0,15.659,12.832,28.396,28.601,28.396
		c15.841,0,28.719-12.737,28.719-28.396C504.131,161.867,504.021,160.48,503.784,159.063z"/>
</g>
<path style="fill:#88B3BA;" d="M113.16,219.077H94.161c-2.56,0-4.647,2.08-4.647,4.663v74.216l-62.59-77.17
	c-0.929-1.079-2.261-1.709-3.671-1.709H4.624c-2.552,0-4.616,2.08-4.616,4.663v138.634c0,2.568,2.064,4.647,4.616,4.647H23.67
	c2.576,0,4.671-2.079,4.671-4.647v-91.758l81.266,97.091c0.906,1.095,2.206,1.678,3.552,1.678c0.551,0,1.079-0.063,1.583-0.26
	c1.851-0.677,3.08-2.434,3.08-4.387V223.74C117.823,221.156,115.72,219.077,113.16,219.077z"/>
<g>
	<path style="fill:#6C959E;" d="M223.87,337.892h-57.155v-37.581h53.153c2.607,0,4.71-2.095,4.71-4.695v-19.015
		c0-2.552-2.103-4.632-4.71-4.632h-53.153V247.82h55.958c2.568,0,4.679-2.095,4.679-4.679V223.74c0-2.584-2.111-4.663-4.679-4.663
		h-80.801c-2.552,0-4.647,2.08-4.647,4.663v138.634c0,2.568,2.095,4.647,4.647,4.647h81.999c2.544,0,4.647-2.079,4.647-4.647
		v-19.803C228.517,339.988,226.414,337.892,223.87,337.892z"/>
	<path style="fill:#6C959E;" d="M388.592,219.077h-21.173c-1.875,0-3.584,1.15-4.34,2.907l-31.508,77.525l-31.523-77.525
		c-0.717-1.757-2.426-2.907-4.301-2.907h-21.22c-1.536,0-3.001,0.772-3.86,2.048c-0.882,1.292-1.024,2.907-0.433,4.356
		l26.805,66.741l-3.04,7.373l-31.602-77.603c-0.701-1.757-2.402-2.907-4.293-2.907h-21.22c-1.528,0-3.009,0.772-3.82,2.048
		c-0.866,1.292-1.063,2.907-0.473,4.372l57.021,140.981c0.709,1.772,2.418,2.907,4.309,2.907l0,0c1.89,0,3.623-1.142,4.356-2.891
		l14.486-35.722l14.501,35.722c0.709,1.757,2.395,2.891,4.309,2.891l0,0c1.883,0,3.616-1.142,4.34-2.907l56.99-140.981
		c0.591-1.465,0.425-3.08-0.425-4.372C391.593,219.849,390.136,219.077,388.592,219.077z"/>
	<path style="fill:#6C959E;" d="M460.272,278.296h-20.393c-8.578,0-15.525-6.971-15.525-15.525c0-8.57,6.947-15.557,15.525-15.557
		h41.771c2.56,0,4.655-2.095,4.655-4.663v-18.818c0-2.584-2.095-4.663-4.655-4.663h-44.158c-23.725,0-43.047,19.417-43.047,43.26
		c0,24.001,19.7,44.292,43.047,44.292h19.251c9.5,0,16.691,6.751,16.691,15.754c0,8.846-7.192,15.51-16.691,15.51h-50.145
		c-2.544,0-4.64,2.095-4.64,4.679v19.803c0,2.568,2.095,4.647,4.64,4.647h53.673c24.166,0,43.859-20.11,43.859-44.828
		C504.131,297.972,484.439,278.296,460.272,278.296z"/>
</g>
<g>
	<path style="fill:#88B3BA;" d="M262.404,221.991c-0.701-1.757-2.402-2.907-4.293-2.907h-21.22c-1.528,0-3.009,0.772-3.82,2.048
		c-0.866,1.292-1.063,2.907-0.473,4.372l17.306,42.795l22.284-22.284L262.404,221.991z"/>
	<path style="fill:#88B3BA;" d="M295.755,219.077h-21.22c-1.536,0-3.001,0.772-3.86,2.048c-0.882,1.292-1.024,2.907-0.433,4.356
		l6.443,16.03l21.638-21.638C297.574,219.376,296.684,219.077,295.755,219.077z"/>
	<path style="fill:#88B3BA;" d="M219.869,271.97h-53.153V247.82h55.958c2.568,0,4.679-2.095,4.679-4.679V223.74
		c0-2.584-2.111-4.663-4.679-4.663h-80.801c-2.552,0-4.647,2.08-4.647,4.663v138.634c0,2.568,2.095,4.647,4.647,4.647h9.311
		l29.121-29.121h-13.588v-37.581h51.169l6.695-6.695V276.61C224.579,274.05,222.476,271.97,219.869,271.97z"/>
</g>
<g>
</g>
<g>
</g>
<g>
</g>
<g>
</g>
<g>
</g>
<g>
</g>
<g>
</g>
<g>
</g>
<g>
</g>
<g>
</g>
<g>
</g>
<g>
</g>
<g>
</g>
<g>
</g>
<g>
</g>
</svg>
